<svg xmlns="http://www.w3.org/2000/svg" width="400pt" height="400pt" viewBox="0 0 400 400"><g fill="#9c9b9b"><path d="M101.117 42.047c2.383 5.058 7.172 16.36 8.586 28.035 2.32 19.207 1.793 43.191 1.61 49.191l-16.376 8.934-38.351-48.992zm63.438-18.39c3.422 1.843 15.543 7.491 35.445 7.491s32.023-5.652 35.445-7.496l59.004 16.055c-2.496 5.242-7.586 17.121-9.113 29.777-2.664 22.028-1.649 50.13-1.602 51.38L283.973 305H116.027l.235-184.137c.05-1.25 1.07-29.332-1.598-51.36-1.527-12.655-6.617-24.546-9.113-29.784zm178.863 55.558l-38.356 48.992-16.375-8.934c-.18-6-.71-29.984 1.614-49.191 1.41-11.676 6.203-22.977 8.582-28.035zm-232.16 45.824L111.02 310h177.96l-.238-184.96 17.649 9.605 43.949-56.153-51.11-42.66-64.52-17.559-.929.579c-.113.07-11.93 7.296-33.781 7.296-21.723 0-33.672-7.23-33.781-7.3l-.93-.578-64.52 17.558L49.66 78.48l43.95 56.165zm0 0M132.988 324.055L111 344.504l21.988 20.445 3.41-3.664L121.028 347h156.945l-15.375 14.285 3.414 3.664L288 344.504l-21.988-20.45-3.414 3.665L277.965 342h-156.93l15.363-14.281zm0 0"/></g></svg>