<svg xmlns="http://www.w3.org/2000/svg" width="400pt" height="400pt" viewBox="0 0 400 400"><g fill="#9c9b9b"><path d="M283.945 282.887l.028 22.113H116.027l.032-23.977c-1.696-.421-3.364-.84-5-1.296l-.04 30.273H288.98l-.039-28.355c-1.625.421-3.293.847-4.996 1.242M305.063 128.207l-16.375-8.934c-.184-6-.711-29.98 1.609-49.191 1.414-11.676 6.203-22.977 8.586-28.035l44.535 37.168zm-195.36-58.125c2.32 19.211 1.793 43.191 1.61 49.191l-16.376 8.934-38.351-48.992 44.531-37.168c2.383 5.058 7.172 16.36 8.586 28.035M234.711 18.27l-.926.578c-.117.074-11.933 7.297-33.785 7.297-21.719 0-33.672-7.227-33.785-7.297l-.926-.578-64.52 17.558L49.66 78.48l43.95 56.145 17.648-9.629-.18 139.035c1.613.496 3.277.977 5 1.446l.184-144.657c.05-1.246 1.07-29.308-1.598-51.336-1.531-12.656-6.617-24.539-9.113-29.777l59.004-16.055c3.422 1.844 15.543 7.493 35.445 7.493s32.023-5.649 35.445-7.493l59.004 16.055c-2.496 5.238-7.582 17.121-9.113 29.777-2.668 22.028-1.649 50.09-1.598 51.336l.188 146.633c1.715-.43 3.387-.867 4.996-1.328l-.18-141.129 17.649 9.629L350.34 78.48l-51.11-42.652zm0 0"/><path d="M305.54 228.063l6.51-2.426 12.227-4.551-1.75-4.688-16.898 6.297-11.238 4.184 4.203 9.18 8.297 18.125 4.55-2.079-5.941-12.972-3.203-6.996c10.625 4.308 17.348 10.496 18.191 16.949.582 4.422-1.75 8.625-6.562 11.832-18.301 12.207-60.442 19.672-110.043 19.5-49.063-.18-92.356-7.559-112.985-19.258-5.214-2.96-7.777-6.39-7.617-10.2.281-6.624 8.75-14.55 22.098-20.687a2.5 2.5 0 0 0-2.09-4.543c-15.516 7.133-24.629 16.25-25.004 25.02-.168 4.008 1.453 9.828 10.149 14.758 21.332 12.101 65.558 19.726 115.43 19.91.616 0 1.23.004 1.843.004 50.445-.004 91.852-7.578 110.992-20.34 6.387-4.262 9.574-10.328 8.746-16.644-1.058-8.079-8.222-15.34-19.906-20.375"/></g></svg>