<svg xmlns="http://www.w3.org/2000/svg" width="400pt" height="400pt" viewBox="0 0 400 400"><g fill="#9c9b9b"><path d="M335.063 163.207l-16.375-8.934c-.184-6-.711-29.98 1.609-49.191 1.414-11.676 6.203-22.977 8.586-28.035l44.535 37.168zm-21.325-7.344L313.973 340H146.027l.235-184.137c.05-1.25 1.066-29.332-1.598-51.36-1.531-12.655-6.617-24.546-9.113-29.784l56.82-15.469c.184 6.3 1.7 19.879 10.762 29.543 6.488 6.922 15.527 10.43 26.867 10.43 11.34 0 20.379-3.508 26.867-10.43 9.063-9.664 10.578-23.246 10.762-29.547l56.82 15.461c-2.496 5.238-7.582 17.121-9.113 29.777-2.664 22.028-1.649 50.13-1.598 51.38m-172.425-1.59l-16.375 8.933-38.352-48.992 44.531-37.168c2.383 5.058 7.172 16.36 8.586 28.035 2.32 19.211 1.793 43.191 1.61 49.191M230 66.145c16.145 0 27.168-3.715 32.582-6.106-.3 5.938-1.898 17.371-9.363 25.332-5.504 5.871-13.317 8.852-23.219 8.852-9.89 0-17.695-2.973-23.2-8.828-7.456-7.934-9.066-19.403-9.374-25.352 5.414 2.387 16.437 6.102 32.574 6.102m34.71-12.875l-.925.578c-.117.074-11.933 7.297-33.785 7.297-21.719 0-33.672-7.227-33.785-7.297l-.926-.578-64.52 17.558L79.66 113.48l43.95 56.145 17.648-9.59L141.02 345h177.96l-.238-184.965 17.649 9.61 43.949-56.153-51.11-42.66zm0 0M34.715 317.02l-3.664 3.41 20.445 21.988 20.45-21.988-3.665-3.41L54 332.383V66.035l14.281 15.367 3.664-3.41L51.496 56 31.051 77.992l3.664 3.41L49 66.027v266.368zm0 0"/></g></svg>