<svg xmlns="http://www.w3.org/2000/svg" width="400pt" height="400pt" viewBox="0 0 400 400"><path d="M331.496 155.816l-21.25-11.59c-.215-6.835-.953-37.46 2.008-61.937 1.844-15.273 8.281-30.02 11.133-35.965l56.75 47.36zm-26.2-9.808L305.595 377H94.406l.301-230.992c.05-1.32 1.34-36.617-1.996-64.203C90.738 65.5 84.016 50.16 81.05 44.043l72.515-19.762c.125 7.38 1.715 24.942 13.305 37.305 7.984 8.52 19.133 12.832 33.129 12.832 13.996 0 25.14-4.324 33.129-12.844 11.59-12.363 13.18-29.941 13.305-37.32l72.515 19.734c-2.965 6.117-9.687 21.395-11.66 37.7-3.336 27.585-2.047 63-1.992 64.32m-215.543-1.781l-21.25 11.59-48.64-62.133 56.75-47.364c2.85 5.946 9.284 20.672 11.132 35.97 2.961 24.468 2.223 55.1 2.008 61.937M200 33.067c21.066 0 35.082-5.079 41.395-7.993-.254 7.156-2.012 22.516-11.915 33.078-7.003 7.47-16.921 11.258-29.48 11.258-12.547 0-22.457-3.781-29.46-11.238-9.892-10.531-11.665-25.926-11.93-33.098 6.316 2.918 20.331 7.992 41.39 7.992m43.488-14.796l-.93.578c-.144.093-15.066 9.218-42.558 9.218-27.36 0-42.414-9.128-42.563-9.218l-.925-.578-80.254 21.84L12.94 92.952l54.239 69.281 22.52-12.05L89.401 382h221.196l-.297-231.816 22.52 12.168 54.238-69.34-63.317-52.875zm0 0" fill="#9c9b9b"/></svg>