<svg xmlns="http://www.w3.org/2000/svg" width="400pt" height="400pt" viewBox="0 0 400 400"><g fill="#9c9b9b"><path d="M335.063 163.207l-16.375-8.934c-.184-6-.711-29.98 1.609-49.191 1.414-11.676 6.203-22.977 8.586-28.035l44.535 37.168zm-21.325-7.344L313.973 340H146.027l.235-184.125c.043-1.066 1.078-29.266-1.598-51.371-1.531-12.656-6.617-24.547-9.113-29.785l56.926-15.496c1.77 36.75 32.972 61.5 37.523 61.5 4.55 0 35.754-24.754 37.523-61.504l56.926 15.488c-2.496 5.242-7.582 17.121-9.113 29.777-2.664 22.028-1.649 50.13-1.598 51.38m-172.425-1.59l-16.375 8.933-38.352-48.992 44.531-37.168c2.383 5.055 7.168 16.336 8.582 28.035 2.324 19.207 1.793 43.191 1.613 49.191M230 66.145c16.035 0 27.008-3.665 32.46-6.055-1.089 16.89-8.67 30.281-15.12 38.765-7.52 9.895-15.09 15.48-17.34 16.696-2.25-1.215-9.82-6.801-17.34-16.696-6.45-8.484-14.031-21.875-15.12-38.765 5.452 2.39 16.425 6.055 32.46 6.055m34.71-12.875l-.925.578c-.117.074-11.933 7.297-33.785 7.297-21.719 0-33.672-7.227-33.785-7.297l-.926-.578-64.52 17.558L79.66 113.48l43.95 56.145 17.648-9.59L141.02 345h177.96l-.238-184.965 17.649 9.61 43.949-56.153-51.11-42.66zm0 0M34.715 317.02l-3.664 3.41 20.445 21.988 20.45-21.988-3.665-3.41L54 332.383V66.035l14.281 15.367 3.664-3.41L51.496 56 31.051 77.992l3.664 3.41L49 66.027v266.368zm0 0"/></g></svg>