<svg xmlns="http://www.w3.org/2000/svg" width="400pt" height="400pt" viewBox="0 0 400 400"><g fill="#9c9b9b"><path d="M283.945 282.887l.028 22.113H116.027l.032-23.977c-1.696-.421-3.364-.84-5-1.296l-.04 30.273H288.98l-.039-28.355c-1.625.421-3.293.847-4.996 1.242M305.063 128.207l-16.375-8.934c-.184-6-.711-29.98 1.609-49.191 1.414-11.676 6.203-22.977 8.586-28.035l44.535 37.168zM217.34 63.855c-7.52 9.895-15.09 15.48-17.34 16.696-2.25-1.215-9.82-6.801-17.34-16.696-6.45-8.484-14.031-21.875-15.12-38.765 5.452 2.39 16.429 6.055 32.46 6.055 16.035 0 27.008-3.665 32.46-6.055-1.089 16.89-8.67 30.281-15.12 38.765M109.7 70.082c2.323 19.207 1.792 43.191 1.612 49.191l-16.374 8.934-38.352-48.992 44.531-37.168c2.383 5.055 7.168 16.336 8.582 28.035M234.711 18.27l-.926.578c-.117.074-11.933 7.297-33.785 7.297-21.723 0-33.672-7.227-33.785-7.297l-.926-.578-64.52 17.558L49.66 78.48l43.95 56.145 17.648-9.629-.18 139.035c1.613.496 3.277.977 5 1.446l.184-144.641c.043-1.066 1.078-29.246-1.598-51.352-1.531-12.656-6.617-24.539-9.113-29.777l56.926-15.492c1.77 36.754 32.972 61.504 37.523 61.504 4.55 0 35.754-24.75 37.523-61.5l56.926 15.488c-2.496 5.238-7.582 17.121-9.113 29.777-2.664 22.028-1.649 50.09-1.598 51.336l.188 146.633c1.715-.43 3.383-.871 4.996-1.328l-.18-141.129 17.649 9.629L350.34 78.48l-51.11-42.652zm0 0"/><path d="M305.54 228.063l6.51-2.426 12.227-4.551-1.75-4.688-16.898 6.297-11.238 4.184 4.203 9.18 8.297 18.125 4.55-2.079-5.941-12.972-3.203-6.996c10.625 4.308 17.348 10.496 18.191 16.949.582 4.422-1.75 8.625-6.562 11.832-18.301 12.207-60.446 19.656-110.043 19.5-49.063-.18-92.356-7.559-112.985-19.258-5.214-2.96-7.777-6.39-7.617-10.2.281-6.624 8.75-14.55 22.098-20.687a2.5 2.5 0 0 0-2.09-4.543c-15.516 7.133-24.629 16.25-25.004 25.02-.168 4.008 1.453 9.828 10.149 14.758 21.332 12.101 65.558 19.726 115.43 19.91.616 0 1.23.004 1.84.004 50.448-.004 91.855-7.578 110.995-20.34 6.387-4.262 9.574-10.328 8.746-16.644-1.058-8.079-8.222-15.34-19.906-20.375"/></g></svg>