<svg xmlns="http://www.w3.org/2000/svg" width="400pt" height="400pt" viewBox="0 0 400 400"><path d="M331.496 155.816l-21.25-11.59c-.215-6.835-.953-37.46 2.008-61.937 1.844-15.273 8.281-30.02 11.133-35.965l56.75 47.36zm-26.2-9.804L305.595 377H94.406l.297-230.977c.047-1.136 1.356-36.558-1.992-64.218C90.738 65.5 84.016 50.16 81.05 44.043l72.633-19.793c1.777 46.012 40.671 77.047 46.316 77.047 5.645 0 44.54-31.055 46.316-77.07l72.633 19.761c-2.965 6.117-9.687 21.395-11.66 37.7-3.336 27.585-2.047 63.003-1.992 64.324m-215.543-1.785l-21.25 11.59-48.64-62.133L76.616 46.32c2.848 5.946 9.281 20.672 11.13 35.97 2.96 24.468 2.222 55.1 2.007 61.937M200 33.067c20.938 0 34.906-5.016 41.273-7.938-1.125 21.855-10.941 39.14-19.257 50.031-9.38 12.281-19.29 19.7-22.016 21-2.73-1.3-12.637-8.719-22.016-21-8.316-10.89-18.132-28.176-19.261-50.031 6.37 2.922 20.34 7.937 41.277 7.937m43.488-14.796l-.93.578c-.144.093-15.066 9.218-42.558 9.218-27.36 0-42.414-9.128-42.563-9.218l-.925-.578-80.254 21.84L12.94 92.952l54.239 69.281 22.52-12.05L89.401 382h221.196l-.297-231.816 22.52 12.168 54.238-69.34-63.317-52.875zm0 0" fill="#9c9b9b"/></svg>