<svg xmlns="http://www.w3.org/2000/svg" width="400pt" height="400pt" viewBox="0 0 400 400"><g fill="#9c9b9b"><path d="M101.117 42.047c2.383 5.055 7.168 16.336 8.586 28.035 2.32 19.207 1.79 43.191 1.61 49.191l-16.376 8.93-38.351-48.988zm61.36-17.824c1.77 36.75 32.972 61.5 37.523 61.5 4.55 0 35.754-24.754 37.523-61.504l56.926 15.488c-2.496 5.242-7.586 17.121-9.113 29.777-2.664 22.028-1.649 50.13-1.602 51.38L283.973 305H116.027l.239-184.125c.039-1.066 1.074-29.266-1.602-51.371-1.531-12.652-6.617-24.547-9.113-29.785zM200 31.148c16.031 0 27.008-3.668 32.46-6.058-1.089 16.89-8.67 30.281-15.12 38.765-7.52 9.895-15.09 15.477-17.34 16.696-2.25-1.219-9.82-6.801-17.34-16.696-6.45-8.484-14.031-21.875-15.12-38.765 5.452 2.39 16.429 6.058 32.46 6.058m143.418 48.067l-38.356 48.988-16.375-8.93c-.18-6-.71-29.984 1.614-49.191 1.41-11.676 6.203-22.973 8.582-28.035zm-232.16 45.824L111.02 310h177.96l-.238-184.96 17.649 9.605 43.949-56.153-51.11-42.66-64.52-17.559-.929.579c-.113.07-11.93 7.296-33.781 7.296-21.723 0-33.672-7.23-33.781-7.3l-.93-.578-64.52 17.558L49.66 78.48l43.95 56.165zm0 0M266.012 364.95L288 344.503l-21.988-20.45-3.41 3.665L277.965 342h-156.93l15.367-14.281-3.414-3.664L111 344.504l21.988 20.445 3.414-3.66L121.027 347h156.946l-15.371 14.29zm0 0"/></g></svg>