<svg xmlns="http://www.w3.org/2000/svg" width="400pt" height="400pt" viewBox="0 0 400 400"><g fill="none" stroke-width="5" stroke="#9c9b9b" stroke-miterlimit="10"><path d="M200 30.566c28.527 0 43.887-9.597 43.887-9.597l78.675 21.41 61.036 50.941-51.442 65.707-24.36-13.289.302 233.293H200M200 71.91c47.18 0 43.887-50.941 43.887-50.941"/><path d="M307.793 145.738s-1.422-35.652 1.98-63.75c2.47-20.433 12.79-39.61 12.79-39.61M200 30.566c-28.527 0-43.887-9.597-43.887-9.597l-78.675 21.41L16.401 93.32l51.442 65.707 24.36-13.289-.302 233.293H200M200 71.91c-47.18 0-43.887-50.941-43.887-50.941"/><path d="M92.207 145.738s1.422-35.652-1.98-63.75c-2.47-20.433-12.79-39.61-12.79-39.61"/></g></svg>